{
    "asset" : {
        "generator" : "Khronos glTF Blender I/O v0.9.36",
        "version" : "2.0"
    },
    "scene" : 0,
    "scenes" : [
        {
            "name" : "Scene",
            "nodes" : [
                0,
                1
            ]
        }
    ],
    "nodes" : [
        {
            "mesh" : 0,
            "name" : "Cube",
            "scale" : [
                -1.7831887006759644,
                6.207701206207275,
                3.820476770401001
            ],
            "translation" : [
                -0.05203390121459961,
                5.923877716064453,
                0.003082573413848877
            ]
        },
        {
            "mesh" : 1,
            "name" : "Cube.001",
            "scale" : [
                1.1865798234939575,
                -2.1623144149780273,
                -1.256209373474121
            ],
            "translation" : [
                0.0379033088684082,
                13.278072357177734,
                -0.015288174152374268
            ]
        }
    ],
    "materials" : [
        {
            "doubleSided" : true,
            "name" : "body",
            "pbrMetallicRoughness" : {
                "baseColorFactor" : [
                    0.07798255234956741,
                    0.30741527676582336,
                    0.8000000715255737,
                    1
                ],
                "metallicFactor" : 0,
                "roughnessFactor" : 0.5
            }
        },
        {
            "doubleSided" : true,
            "name" : "head",
            "pbrMetallicRoughness" : {
                "baseColorFactor" : [
                    0.33730384707450867,
                    0.6459539532661438,
                    0.8000000715255737,
                    1
                ],
                "metallicFactor" : 0,
                "roughnessFactor" : 0.5
            }
        }
    ],
    "meshes" : [
        {
            "name" : "Cube",
            "primitives" : [
                {
                    "attributes" : {
                        "POSITION" : 0,
                        "NORMAL" : 1,
                        "TEXCOORD_0" : 2
                    },
                    "indices" : 3,
                    "material" : 0
                }
            ]
        },
        {
            "name" : "Cube.002",
            "primitives" : [
                {
                    "attributes" : {
                        "POSITION" : 4,
                        "NORMAL" : 5,
                        "TEXCOORD_0" : 6
                    },
                    "indices" : 3,
                    "material" : 1
                }
            ]
        }
    ],
    "accessors" : [
        {
            "bufferView" : 0,
            "componentType" : 5126,
            "count" : 459,
            "max" : [
                1,
                1,
                1
            ],
            "min" : [
                -1,
                -1,
                -1
            ],
            "type" : "VEC3"
        },
        {
            "bufferView" : 1,
            "componentType" : 5126,
            "count" : 459,
            "type" : "VEC3"
        },
        {
            "bufferView" : 2,
            "componentType" : 5126,
            "count" : 459,
            "type" : "VEC2"
        },
        {
            "bufferView" : 3,
            "componentType" : 5123,
            "count" : 2292,
            "type" : "SCALAR"
        },
        {
            "bufferView" : 4,
            "componentType" : 5126,
            "count" : 459,
            "max" : [
                1,
                1,
                1
            ],
            "min" : [
                -1,
                -1,
                -1
            ],
            "type" : "VEC3"
        },
        {
            "bufferView" : 5,
            "componentType" : 5126,
            "count" : 459,
            "type" : "VEC3"
        },
        {
            "bufferView" : 6,
            "componentType" : 5126,
            "count" : 459,
            "type" : "VEC2"
        }
    ],
    "bufferViews" : [
        {
            "buffer" : 0,
            "byteLength" : 5508,
            "byteOffset" : 0
        },
        {
            "buffer" : 0,
            "byteLength" : 5508,
            "byteOffset" : 5508
        },
        {
            "buffer" : 0,
            "byteLength" : 3672,
            "byteOffset" : 11016
        },
        {
            "buffer" : 0,
            "byteLength" : 4584,
            "byteOffset" : 14688
        },
        {
            "buffer" : 0,
            "byteLength" : 5508,
            "byteOffset" : 19272
        },
        {
            "buffer" : 0,
            "byteLength" : 5508,
            "byteOffset" : 24780
        },
        {
            "buffer" : 0,
            "byteLength" : 3672,
            "byteOffset" : 30288
        }
    ],
    "buffers" : [
        {
            "byteLength" : 33960,
            "uri" : "data:application/octet-stream;base64,"
        }
    ]
}
