{
    "asset" : {
        "generator" : "Khronos glTF Blender I/O v0.9.36",
        "version" : "2.0"
    },
    "scene" : 0,
    "scenes" : [
        {
            "name" : "Scene",
            "nodes" : [
                0,
                1,
                2,
                3,
                4,
                5,
                6,
                7,
                8,
                9
            ]
        }
    ],
    "nodes" : [
        {
            "mesh" : 0,
            "name" : "tour1",
            "scale" : [
                2,
                2,
                2
            ],
            "translation" : [
                2.962484836578369,
                5.890982627868652,
                2.4325313568115234
            ]
        },
        {
            "mesh" : 1,
            "name" : "tour2",
            "scale" : [
                2,
                2,
                2
            ],
            "translation" : [
                2.962484836578369,
                9.647087097167969,
                2.4325313568115234
            ]
        },
        {
            "mesh" : 2,
            "name" : "tour3",
            "scale" : [
                2,
                2,
                2
            ],
            "translation" : [
                2.962484836578369,
                13.665416717529297,
                2.4325313568115234
            ]
        },
        {
            "mesh" : 3,
            "name" : "tour4",
            "scale" : [
                2,
                2,
                2
            ],
            "translation" : [
                2.962484836578369,
                17.622758865356445,
                2.4325313568115234
            ]
        },
        {
            "mesh" : 4,
            "name" : "marbre_table",
            "rotation" : [
                0,
                0.7071068286895752,
                -0.7071067094802856,
                0
            ],
            "scale" : [
                -7.844205856323242,
                -8.319637298583984,
                -1.7052019834518433
            ],
            "translation" : [
                2.248039722442627,
                19.375022888183594,
                17.214265823364258
            ]
        },
        {
            "mesh" : 5,
            "name" : "moquette",
            "scale" : [
                11.81224536895752,
                -0.39387595653533936,
                11.81224536895752
            ],
            "translation" : [
                2.3378398418426514,
                21.133869171142578,
                17.586172103881836
            ]
        },
        {
            "mesh" : 6,
            "name" : "ground",
            "rotation" : [
                0,
                -0.3826834559440613,
                0,
                0.9238795042037964
            ],
            "scale" : [
                100,
                100,
                100
            ],
            "translation" : [
                -0.800694465637207,
                4.837446212768555,
                -21.691944122314453
            ]
        },
        {
            "mesh" : 7,
            "name" : "right_wall",
            "rotation" : [
                0.6532815098762512,
                -0.27059805393218994,
                0.27059805393218994,
                0.6532814502716064
            ],
            "scale" : [
                100,
                100,
                100
            ],
            "translation" : [
                69.61174011230469,
                100.94425964355469,
                -92.10437774658203
            ]
        },
        {
            "mesh" : 8,
            "name" : "left_wall",
            "rotation" : [
                0.27059805393218994,
                -0.27059805393218994,
                -0.6532814502716064,
                0.6532815098762512
            ],
            "scale" : [
                100,
                100,
                100
            ],
            "translation" : [
                -69.2453842163086,
                100.94425964355469,
                -90.13663482666016
            ]
        },
        {
            "mesh" : 9,
            "name" : "cards",
            "rotation" : [
                0.7065905332565308,
                0.006594507023692131,
                -0.7075859308242798,
                -0.002903374144807458
            ],
            "scale" : [
                1.6951444149017334,
                0.28252407908439636,
                2.4014546871185303
            ],
            "translation" : [
                2.038738250732422,
                21.788259506225586,
                18.34130096435547
            ]
        }
    ],
    "materials" : [
        {
            "doubleSided" : true,
            "name" : "yellow_wood",
            "pbrMetallicRoughness" : {
                "baseColorFactor" : [
                    0.5840787887573242,
                    0.15896075963974,
                    0.0009106025099754333,
                    1
                ],
                "metallicFactor" : 0,
                "roughnessFactor" : 0.5
            }
        },
        {
            "doubleSided" : true,
            "name" : "marbre_rose",
            "pbrMetallicRoughness" : {
                "baseColorFactor" : [
                    0.4178851842880249,
                    0.15292608737945557,
                    0.30946898460388184,
                    1
                ],
                "metallicFactor" : 0,
                "roughnessFactor" : 0.5
            }
        },
        {
            "doubleSided" : true,
            "name" : "moquette_verte",
            "pbrMetallicRoughness" : {
                "baseColorFactor" : [
                    0,
                    0.47698986530303955,
                    0.00037031667307019234,
                    1
                ],
                "metallicFactor" : 0,
                "roughnessFactor" : 0.5
            }
        },
        {
            "doubleSided" : true,
            "name" : "ground",
            "pbrMetallicRoughness" : {
                "baseColorFactor" : [
                    0.6859566569328308,
                    0.6859566569328308,
                    0.6859566569328308,
                    1
                ],
                "metallicFactor" : 0,
                "roughnessFactor" : 0.5
            }
        },
        {
            "doubleSided" : true,
            "name" : "right_wall",
            "pbrMetallicRoughness" : {
                "baseColorFactor" : [
                    0.35352998971939087,
                    0.3564002215862274,
                    0.008317136205732822,
                    1
                ],
                "metallicFactor" : 0,
                "roughnessFactor" : 0.5
            }
        },
        {
            "doubleSided" : true,
            "name" : "left_wall",
            "pbrMetallicRoughness" : {
                "baseColorFactor" : [
                    0.02007972076535225,
                    0.3564002215862274,
                    0.02124926820397377,
                    1
                ],
                "metallicFactor" : 0,
                "roughnessFactor" : 0.5
            }
        }
    ],
    "meshes" : [
        {
            "name" : "Icosphere",
            "primitives" : [
                {
                    "attributes" : {
                        "POSITION" : 0,
                        "NORMAL" : 1,
                        "TEXCOORD_0" : 2
                    },
                    "indices" : 3,
                    "material" : 0
                }
            ]
        },
        {
            "name" : "Icosphere.001",
            "primitives" : [
                {
                    "attributes" : {
                        "POSITION" : 4,
                        "NORMAL" : 5,
                        "TEXCOORD_0" : 6
                    },
                    "indices" : 7,
                    "material" : 0
                }
            ]
        },
        {
            "name" : "Icosphere.003",
            "primitives" : [
                {
                    "attributes" : {
                        "POSITION" : 8,
                        "NORMAL" : 9,
                        "TEXCOORD_0" : 10
                    },
                    "indices" : 11,
                    "material" : 0
                }
            ]
        },
        {
            "name" : "Icosphere.002",
            "primitives" : [
                {
                    "attributes" : {
                        "POSITION" : 12,
                        "NORMAL" : 13,
                        "TEXCOORD_0" : 14
                    },
                    "indices" : 15,
                    "material" : 0
                }
            ]
        },
        {
            "name" : "Cube.000",
            "primitives" : [
                {
                    "attributes" : {
                        "POSITION" : 16,
                        "NORMAL" : 17,
                        "TEXCOORD_0" : 18
                    },
                    "indices" : 19,
                    "material" : 1
                }
            ]
        },
        {
            "name" : "Cylinder",
            "primitives" : [
                {
                    "attributes" : {
                        "POSITION" : 20,
                        "NORMAL" : 21,
                        "TEXCOORD_0" : 22
                    },
                    "indices" : 23,
                    "material" : 2
                }
            ]
        },
        {
            "name" : "Plane",
            "primitives" : [
                {
                    "attributes" : {
                        "POSITION" : 24,
                        "NORMAL" : 25,
                        "TEXCOORD_0" : 26
                    },
                    "indices" : 27,
                    "material" : 3
                }
            ]
        },
        {
            "name" : "Plane.001",
            "primitives" : [
                {
                    "attributes" : {
                        "POSITION" : 28,
                        "NORMAL" : 29,
                        "TEXCOORD_0" : 30
                    },
                    "indices" : 27,
                    "material" : 4
                }
            ]
        },
        {
            "name" : "Plane.003",
            "primitives" : [
                {
                    "attributes" : {
                        "POSITION" : 31,
                        "NORMAL" : 32,
                        "TEXCOORD_0" : 33
                    },
                    "indices" : 27,
                    "material" : 5
                }
            ]
        },
        {
            "name" : "Cube",
            "primitives" : [
                {
                    "attributes" : {
                        "POSITION" : 34,
                        "NORMAL" : 35,
                        "TEXCOORD_0" : 36
                    },
                    "indices" : 37
                }
            ]
        }
    ],
    "accessors" : [
        {
            "bufferView" : 0,
            "componentType" : 5126,
            "count" : 28,
            "max" : [
                1.1510231494903564,
                1.9050854444503784,
                0.9878894686698914
            ],
            "min" : [
                -1.5878286361694336,
                -0.9244095683097839,
                -1.2419908046722412
            ],
            "type" : "VEC3"
        },
        {
            "bufferView" : 1,
            "componentType" : 5126,
            "count" : 28,
            "type" : "VEC3"
        },
        {
            "bufferView" : 2,
            "componentType" : 5126,
            "count" : 28,
            "type" : "VEC2"
        },
        {
            "bufferView" : 3,
            "componentType" : 5123,
            "count" : 132,
            "type" : "SCALAR"
        },
        {
            "bufferView" : 4,
            "componentType" : 5126,
            "count" : 32,
            "max" : [
                1.3282922506332397,
                1.7562172412872314,
                1.3914886713027954
            ],
            "min" : [
                -1.3188759088516235,
                -0.8882885575294495,
                -1.3909093141555786
            ],
            "type" : "VEC3"
        },
        {
            "bufferView" : 5,
            "componentType" : 5126,
            "count" : 32,
            "type" : "VEC3"
        },
        {
            "bufferView" : 6,
            "componentType" : 5126,
            "count" : 32,
            "type" : "VEC2"
        },
        {
            "bufferView" : 7,
            "componentType" : 5123,
            "count" : 150,
            "type" : "SCALAR"
        },
        {
            "bufferView" : 8,
            "componentType" : 5126,
            "count" : 52,
            "max" : [
                1.0277193784713745,
                1.9845256805419922,
                1.3069278001785278
            ],
            "min" : [
                -1.1920607089996338,
                -0.8761231899261475,
                -1.3496339321136475
            ],
            "type" : "VEC3"
        },
        {
            "bufferView" : 9,
            "componentType" : 5126,
            "count" : 52,
            "type" : "VEC3"
        },
        {
            "bufferView" : 10,
            "componentType" : 5126,
            "count" : 52,
            "type" : "VEC2"
        },
        {
            "bufferView" : 11,
            "componentType" : 5123,
            "count" : 234,
            "type" : "SCALAR"
        },
        {
            "bufferView" : 12,
            "componentType" : 5126,
            "count" : 50,
            "max" : [
                1.5784043073654175,
                1.9313169717788696,
                1.3782304525375366
            ],
            "min" : [
                -1.713658332824707,
                -0.968046247959137,
                -1.2879382371902466
            ],
            "type" : "VEC3"
        },
        {
            "bufferView" : 13,
            "componentType" : 5126,
            "count" : 50,
            "type" : "VEC3"
        },
        {
            "bufferView" : 14,
            "componentType" : 5126,
            "count" : 50,
            "type" : "VEC2"
        },
        {
            "bufferView" : 15,
            "componentType" : 5123,
            "count" : 207,
            "type" : "SCALAR"
        },
        {
            "bufferView" : 16,
            "componentType" : 5126,
            "count" : 3360,
            "max" : [
                1.5798150300979614,
                1.5824846029281616,
                1.3673815727233887
            ],
            "min" : [
                -1.5825077295303345,
                -1.6620104312896729,
                -1.5937979221343994
            ],
            "type" : "VEC3"
        },
        {
            "bufferView" : 17,
            "componentType" : 5126,
            "count" : 3360,
            "type" : "VEC3"
        },
        {
            "bufferView" : 18,
            "componentType" : 5126,
            "count" : 3360,
            "type" : "VEC2"
        },
        {
            "bufferView" : 19,
            "componentType" : 5123,
            "count" : 7800,
            "type" : "SCALAR"
        },
        {
            "bufferView" : 20,
            "componentType" : 5126,
            "count" : 1161,
            "max" : [
                1,
                2.4284706115722656,
                1
            ],
            "min" : [
                -1,
                -1.0065903663635254,
                -1
            ],
            "type" : "VEC3"
        },
        {
            "bufferView" : 21,
            "componentType" : 5126,
            "count" : 1161,
            "type" : "VEC3"
        },
        {
            "bufferView" : 22,
            "componentType" : 5126,
            "count" : 1161,
            "type" : "VEC2"
        },
        {
            "bufferView" : 23,
            "componentType" : 5123,
            "count" : 2037,
            "type" : "SCALAR"
        },
        {
            "bufferView" : 24,
            "componentType" : 5126,
            "count" : 4,
            "max" : [
                1,
                0,
                1
            ],
            "min" : [
                -1,
                0,
                -1
            ],
            "type" : "VEC3"
        },
        {
            "bufferView" : 25,
            "componentType" : 5126,
            "count" : 4,
            "type" : "VEC3"
        },
        {
            "bufferView" : 26,
            "componentType" : 5126,
            "count" : 4,
            "type" : "VEC2"
        },
        {
            "bufferView" : 27,
            "componentType" : 5123,
            "count" : 6,
            "type" : "SCALAR"
        },
        {
            "bufferView" : 28,
            "componentType" : 5126,
            "count" : 4,
            "max" : [
                1,
                0,
                1
            ],
            "min" : [
                -1,
                0,
                -1
            ],
            "type" : "VEC3"
        },
        {
            "bufferView" : 29,
            "componentType" : 5126,
            "count" : 4,
            "type" : "VEC3"
        },
        {
            "bufferView" : 30,
            "componentType" : 5126,
            "count" : 4,
            "type" : "VEC2"
        },
        {
            "bufferView" : 31,
            "componentType" : 5126,
            "count" : 4,
            "max" : [
                1,
                0,
                1
            ],
            "min" : [
                -1,
                0,
                -1
            ],
            "type" : "VEC3"
        },
        {
            "bufferView" : 32,
            "componentType" : 5126,
            "count" : 4,
            "type" : "VEC3"
        },
        {
            "bufferView" : 33,
            "componentType" : 5126,
            "count" : 4,
            "type" : "VEC2"
        },
        {
            "bufferView" : 34,
            "componentType" : 5126,
            "count" : 96,
            "max" : [
                1.0000004768371582,
                1,
                1.0000005960464478
            ],
            "min" : [
                -1.0000003576278687,
                -1,
                -1.0000003576278687
            ],
            "type" : "VEC3"
        },
        {
            "bufferView" : 35,
            "componentType" : 5126,
            "count" : 96,
            "type" : "VEC3"
        },
        {
            "bufferView" : 36,
            "componentType" : 5126,
            "count" : 96,
            "type" : "VEC2"
        },
        {
            "bufferView" : 37,
            "componentType" : 5123,
            "count" : 144,
            "type" : "SCALAR"
        }
    ],
    "bufferViews" : [
        {
            "buffer" : 0,
            "byteLength" : 336,
            "byteOffset" : 0
        },
        {
            "buffer" : 0,
            "byteLength" : 336,
            "byteOffset" : 336
        },
        {
            "buffer" : 0,
            "byteLength" : 224,
            "byteOffset" : 672
        },
        {
            "buffer" : 0,
            "byteLength" : 264,
            "byteOffset" : 896
        },
        {
            "buffer" : 0,
            "byteLength" : 384,
            "byteOffset" : 1160
        },
        {
            "buffer" : 0,
            "byteLength" : 384,
            "byteOffset" : 1544
        },
        {
            "buffer" : 0,
            "byteLength" : 256,
            "byteOffset" : 1928
        },
        {
            "buffer" : 0,
            "byteLength" : 300,
            "byteOffset" : 2184
        },
        {
            "buffer" : 0,
            "byteLength" : 624,
            "byteOffset" : 2484
        },
        {
            "buffer" : 0,
            "byteLength" : 624,
            "byteOffset" : 3108
        },
        {
            "buffer" : 0,
            "byteLength" : 416,
            "byteOffset" : 3732
        },
        {
            "buffer" : 0,
            "byteLength" : 468,
            "byteOffset" : 4148
        },
        {
            "buffer" : 0,
            "byteLength" : 600,
            "byteOffset" : 4616
        },
        {
            "buffer" : 0,
            "byteLength" : 600,
            "byteOffset" : 5216
        },
        {
            "buffer" : 0,
            "byteLength" : 400,
            "byteOffset" : 5816
        },
        {
            "buffer" : 0,
            "byteLength" : 414,
            "byteOffset" : 6216
        },
        {
            "buffer" : 0,
            "byteLength" : 40320,
            "byteOffset" : 6632
        },
        {
            "buffer" : 0,
            "byteLength" : 40320,
            "byteOffset" : 46952
        },
        {
            "buffer" : 0,
            "byteLength" : 26880,
            "byteOffset" : 87272
        },
        {
            "buffer" : 0,
            "byteLength" : 15600,
            "byteOffset" : 114152
        },
        {
            "buffer" : 0,
            "byteLength" : 13932,
            "byteOffset" : 129752
        },
        {
            "buffer" : 0,
            "byteLength" : 13932,
            "byteOffset" : 143684
        },
        {
            "buffer" : 0,
            "byteLength" : 9288,
            "byteOffset" : 157616
        },
        {
            "buffer" : 0,
            "byteLength" : 4074,
            "byteOffset" : 166904
        },
        {
            "buffer" : 0,
            "byteLength" : 48,
            "byteOffset" : 170980
        },
        {
            "buffer" : 0,
            "byteLength" : 48,
            "byteOffset" : 171028
        },
        {
            "buffer" : 0,
            "byteLength" : 32,
            "byteOffset" : 171076
        },
        {
            "buffer" : 0,
            "byteLength" : 12,
            "byteOffset" : 171108
        },
        {
            "buffer" : 0,
            "byteLength" : 48,
            "byteOffset" : 171120
        },
        {
            "buffer" : 0,
            "byteLength" : 48,
            "byteOffset" : 171168
        },
        {
            "buffer" : 0,
            "byteLength" : 32,
            "byteOffset" : 171216
        },
        {
            "buffer" : 0,
            "byteLength" : 48,
            "byteOffset" : 171248
        },
        {
            "buffer" : 0,
            "byteLength" : 48,
            "byteOffset" : 171296
        },
        {
            "buffer" : 0,
            "byteLength" : 32,
            "byteOffset" : 171344
        },
        {
            "buffer" : 0,
            "byteLength" : 1152,
            "byteOffset" : 171376
        },
        {
            "buffer" : 0,
            "byteLength" : 1152,
            "byteOffset" : 172528
        },
        {
            "buffer" : 0,
            "byteLength" : 768,
            "byteOffset" : 173680
        },
        {
            "buffer" : 0,
            "byteLength" : 288,
            "byteOffset" : 174448
        }
    ],
    "buffers" : [
        {
            "byteLength" : 174736,
            "uri" : "data:application/octet-stream;base64,"
        }
    ]
}
