{
    "asset" : {
        "generator" : "Khronos glTF Blender I/O v0.9.36",
        "version" : "2.0"
    },
    "scene" : 0,
    "scenes" : [
        {
            "name" : "Scene",
            "nodes" : [
                0,
                1,
                2,
                3,
                4
            ]
        }
    ],
    "nodes" : [
        {
            "mesh" : 0,
            "name" : "white",
            "scale" : [
                1.3352711200714111,
                1.3352711200714111,
                1.3352711200714111
            ],
            "translation" : [
                0.03685218095779419,
                0.02399006485939026,
                0.05153423920273781
            ]
        },
        {
            "mesh" : 1,
            "name" : "red",
            "scale" : [
                0.7699999809265137,
                0.7699999809265137,
                0.7699999809265137
            ],
            "translation" : [
                0.03685218095779419,
                0.02399006485939026,
                -0.13393115997314453
            ]
        },
        {
            "mesh" : 2,
            "name" : "white2",
            "translation" : [
                0.008316338062286377,
                0.008341163396835327,
                -0.00926637277007103
            ]
        },
        {
            "mesh" : 3,
            "name" : "red2",
            "translation" : [
                -0.04063767194747925,
                0.008498728275299072,
                -0.015543099492788315
            ]
        },
        {
            "mesh" : 4,
            "name" : "red3",
            "translation" : [
                -0.04063767194747925,
                0.009554356336593628,
                -0.015543099492788315
            ]
        }
    ],
    "materials" : [
        {
            "doubleSided" : true,
            "name" : "white",
            "pbrMetallicRoughness" : {
                "baseColorFactor" : [
                    1,
                    1,
                    1,
                    1
                ],
                "metallicFactor" : 0,
                "roughnessFactor" : 0.5
            }
        },
        {
            "doubleSided" : true,
            "name" : "red",
            "pbrMetallicRoughness" : {
                "baseColorFactor" : [
                    1,
                    0,
                    0,
                    1
                ],
                "metallicFactor" : 0,
                "roughnessFactor" : 0.5
            }
        }
    ],
    "meshes" : [
        {
            "name" : "Plane.074_White.001",
            "primitives" : [
                {
                    "attributes" : {
                        "POSITION" : 0,
                        "NORMAL" : 1
                    },
                    "indices" : 2,
                    "material" : 0
                }
            ]
        },
        {
            "name" : "Plane.075_Red.001",
            "primitives" : [
                {
                    "attributes" : {
                        "POSITION" : 3,
                        "NORMAL" : 4
                    },
                    "indices" : 5,
                    "material" : 1
                }
            ]
        },
        {
            "name" : "AceSpadesFro_Whit.046",
            "primitives" : [
                {
                    "attributes" : {
                        "POSITION" : 6,
                        "NORMAL" : 7
                    },
                    "indices" : 8,
                    "material" : 0
                }
            ]
        },
        {
            "name" : "Font.027_Bla_Blac.000",
            "primitives" : [
                {
                    "attributes" : {
                        "POSITION" : 9,
                        "NORMAL" : 10
                    },
                    "indices" : 11,
                    "material" : 1
                }
            ]
        },
        {
            "name" : "Font.028_Bla_Blac.000",
            "primitives" : [
                {
                    "attributes" : {
                        "POSITION" : 12,
                        "NORMAL" : 13
                    },
                    "indices" : 14,
                    "material" : 1
                }
            ]
        }
    ],
    "accessors" : [
        {
            "bufferView" : 0,
            "componentType" : 5126,
            "count" : 17,
            "max" : [
                0.15353982150554657,
                0.0027991109527647495,
                0.10639342665672302
            ],
            "min" : [
                -0.14745093882083893,
                0.0027991109527647495,
                -0.23141993582248688
            ],
            "type" : "VEC3"
        },
        {
            "bufferView" : 1,
            "componentType" : 5126,
            "count" : 17,
            "type" : "VEC3"
        },
        {
            "bufferView" : 2,
            "componentType" : 5123,
            "count" : 39,
            "type" : "SCALAR"
        },
        {
            "bufferView" : 3,
            "componentType" : 5126,
            "count" : 21,
            "max" : [
                0.6176221966743469,
                0.0008696173899807036,
                0.8268282413482666
            ],
            "min" : [
                -0.6140559315681458,
                0.0008696173899807036,
                -0.5579396486282349
            ],
            "type" : "VEC3"
        },
        {
            "bufferView" : 4,
            "componentType" : 5126,
            "count" : 21,
            "type" : "VEC3"
        },
        {
            "bufferView" : 5,
            "componentType" : 5123,
            "count" : 51,
            "type" : "SCALAR"
        },
        {
            "bufferView" : 6,
            "componentType" : 5126,
            "count" : 8,
            "max" : [
                0.7872506976127625,
                0,
                0.9613470435142517
            ],
            "min" : [
                -0.7872506976127625,
                0,
                -0.9742581248283386
            ],
            "type" : "VEC3"
        },
        {
            "bufferView" : 7,
            "componentType" : 5126,
            "count" : 8,
            "type" : "VEC3"
        },
        {
            "bufferView" : 8,
            "componentType" : 5123,
            "count" : 18,
            "type" : "SCALAR"
        },
        {
            "bufferView" : 9,
            "componentType" : 5126,
            "count" : 30,
            "max" : [
                -0.4199346601963043,
                0.0035532840993255377,
                -0.6176524758338928
            ],
            "min" : [
                -0.712959885597229,
                0.0035532840993255377,
                -0.9450043439865112
            ],
            "type" : "VEC3"
        },
        {
            "bufferView" : 10,
            "componentType" : 5126,
            "count" : 30,
            "type" : "VEC3"
        },
        {
            "bufferView" : 11,
            "componentType" : 5123,
            "count" : 78,
            "type" : "SCALAR"
        },
        {
            "bufferView" : 12,
            "componentType" : 5126,
            "count" : 27,
            "max" : [
                0.764255166053772,
                0.0035532840993255377,
                0.9514162540435791
            ],
            "min" : [
                0.47025516629219055,
                0.0035532840993255377,
                0.6240643858909607
            ],
            "type" : "VEC3"
        },
        {
            "bufferView" : 13,
            "componentType" : 5126,
            "count" : 27,
            "type" : "VEC3"
        },
        {
            "bufferView" : 14,
            "componentType" : 5123,
            "count" : 69,
            "type" : "SCALAR"
        }
    ],
    "bufferViews" : [
        {
            "buffer" : 0,
            "byteLength" : 204,
            "byteOffset" : 0
        },
        {
            "buffer" : 0,
            "byteLength" : 204,
            "byteOffset" : 204
        },
        {
            "buffer" : 0,
            "byteLength" : 78,
            "byteOffset" : 408
        },
        {
            "buffer" : 0,
            "byteLength" : 252,
            "byteOffset" : 488
        },
        {
            "buffer" : 0,
            "byteLength" : 252,
            "byteOffset" : 740
        },
        {
            "buffer" : 0,
            "byteLength" : 102,
            "byteOffset" : 992
        },
        {
            "buffer" : 0,
            "byteLength" : 96,
            "byteOffset" : 1096
        },
        {
            "buffer" : 0,
            "byteLength" : 96,
            "byteOffset" : 1192
        },
        {
            "buffer" : 0,
            "byteLength" : 36,
            "byteOffset" : 1288
        },
        {
            "buffer" : 0,
            "byteLength" : 360,
            "byteOffset" : 1324
        },
        {
            "buffer" : 0,
            "byteLength" : 360,
            "byteOffset" : 1684
        },
        {
            "buffer" : 0,
            "byteLength" : 156,
            "byteOffset" : 2044
        },
        {
            "buffer" : 0,
            "byteLength" : 324,
            "byteOffset" : 2200
        },
        {
            "buffer" : 0,
            "byteLength" : 324,
            "byteOffset" : 2524
        },
        {
            "buffer" : 0,
            "byteLength" : 138,
            "byteOffset" : 2848
        }
    ],
    "buffers" : [
        {
            "byteLength" : 2988,
            "uri" : "data:application/octet-stream;base64,"
        }
    ]
}
